<?xml version="1.0" encoding="utf-8"?>
<!-- Generator: Adobe Illustrator 23.0.1, SVG Export Plug-In . SVG Version: 6.00 Build 0)  -->
<svg version="1.1" id="Layer_1" xmlns="http://www.w3.org/2000/svg" xmlns:xlink="http://www.w3.org/1999/xlink" x="0px" y="0px"
	 viewBox="0 0 314 374.9" style="enable-background:new 0 0 314 374.9;" xml:space="preserve">
<style type="text/css">
	.st0{fill:#FFFFFF;}
</style>
<g>
	<g>
		<path class="st0" d="M75,21.2C30.1,48.2,0,97.3,0,153.5c0,19.5,3.9,40,11.2,58.1c7.3,17.9,17.9,34.5,31.5,48.2
			c3.8,3.8,7.5,7.7,11.9,10.9c13.2,9.3,18.2,0.4,20.5-4c2.4-4.6,4.6-9.4,6.4-14.2c3.5-9.1,5.7-18.6,6.1-28.4
			c0.8-18-5.1-35.2-10.5-52.2C58.6,113.7,30.2,62,75,21.2z"/>
		<path class="st0" d="M241.5,26c0,0-5.5-3.5-5.7-3.4C212.1,7.7,184.7,0,154.6,0c-7.8,0-26.9,2.1-39.6,9.8
			C91.9,23.7,82.9,44,80.2,52c-5.2,15.3-1.7,31.6,2.2,46.8c4.7,18.1,10.3,36,16.1,53.8c6.5,20,13.6,40,15.6,61
			c1.4,14.2,0.2,28.5-2.4,42.4c-1.2,6.7-1.4,8.2-3,14.8c-2.9,12.6-7.3,16.5-4.8,25c3,10.6,40.9,11.8,50.3,11.8
			c9.4,0,18.8-1.1,28-2.5c14.1-2.1,20-9.6,23.8-22.9c4.2-14.7,6.5-30.4,7.7-45.6c1.9-24.8-2.5-50-8.6-74c-3-11.9-6.5-23.7-9.4-35.7
			c-0.6-5.8,0.2-12.8,8.2-13.4c9.1-0.6,17.1,8.3,24.4,23.4c14,36.6,23.2,83.7,5.6,144c44.9-26.9,75-71.5,75-127.7
			C308.8,100.4,282.1,53.7,241.5,26z"/>
	</g>
</g>
<g>
	<g>
		<path class="st0" d="M305.8,339.5v1.1h-2.1v5.4h-1.3v-5.4h-2.1v-1.1H305.8z M312.8,346l-0.2-3.8c0-0.5,0-1.1,0-1.8h-0.1
			c-0.2,0.6-0.4,1.3-0.5,1.9l-1.2,3.6h-1.3l-1.2-3.7c-0.1-0.5-0.3-1.3-0.5-1.8h-0.1c0,0.6,0,1.2,0,1.8l-0.2,3.8h-1.2l0.5-6.5h1.9
			l1.1,3.2c0.1,0.5,0.3,1,0.4,1.6h0c0.2-0.6,0.3-1.1,0.5-1.6l1.1-3.2h1.9l0.5,6.5H312.8z"/>
	</g>
	<g>
		<g>
			<path class="st0" d="M44,339.1c-1,0-2.2,0.1-3.2,0.3l-0.5,0.1l-0.2,0.4c-2.5,5.1-5,9.9-7.6,14.6c-0.3,0.7-0.6,1.3-0.9,2
				c-0.7-1.5-1.5-3.3-2.4-5.1l-6.3-12l-0.4-0.1c-0.1,0-1.5-0.3-3-0.3c-1.8,0-3.1,0.3-3.1,0.4l-0.7,0.2v34.1l0.6,0.3
				c0.1,0,1,0.4,2.5,0.4c1.6,0,2.5-0.4,2.6-0.4l0.6-0.3v-16.2c0-2.1,0-4.1,0-6c0.7,1.4,1.4,2.9,2.1,4.3l5.5,10.3l0.3,0.1
				c0.1,0.1,0.7,0.4,1.8,0.4c1,0,1.7-0.3,1.8-0.3l0.3-0.1l5.6-10.6l0.4-0.9c0.6-1.2,1.2-2.5,1.7-3.6c0,1.6,0,3.2,0,4.9l0,17.8
				L42,374c0.1,0,1.1,0.4,2.7,0.4c1.7,0,2.6-0.4,2.7-0.4l0.6-0.3v-34.1l-0.7-0.2C47.2,339.4,45.9,339.1,44,339.1z"/>
			<path class="st0" d="M81.2,339.1H61.2v34.7l0.6,0.3c0.1,0,1,0.4,2.7,0.4c1.8,0,2.7-0.4,2.8-0.4l0.6-0.3V360h11.8l0.3-0.6
				c0.3-0.7,0.4-1.5,0.4-2.4c0-0.9-0.2-1.7-0.5-2.3l-0.3-0.6H67.9v-9.3h13.4l0.3-0.6c0.3-0.7,0.4-1.5,0.4-2.3c0-0.9-0.2-1.6-0.5-2.3
				L81.2,339.1z"/>
			<path class="st0" d="M116.5,349.8c0-6.4-4.4-10.8-10.9-10.8H92.7v34.7l0.6,0.3c0.2,0.1,1,0.4,2.8,0.4c1.7,0,2.6-0.4,2.7-0.4
				l0.6-0.3v-13.2h3.9l7.6,13.4l0.4,0.1c0.1,0,1.2,0.4,3,0.4c1.9,0,3-0.3,3.1-0.4l1.2-0.4l-8.1-14
				C114.3,358,116.5,354.4,116.5,349.8z M99.4,345h5.5c3,0,4.7,1.7,4.7,4.8c0,3.1-1.6,4.8-4.7,4.8h-5.5V345z"/>
			<path class="st0" d="M143.8,339.4c0,0-1.2-0.4-3.1-0.4c-1.7,0-3,0.3-3,0.4l-0.5,0.1L125,373.6l0.9,0.4c0.1,0,1,0.4,2.6,0.4
				c1.6,0,2.5-0.4,2.6-0.4l0.4-0.2l2.8-7.9h12.3l2.8,7.9l0.4,0.2c0.1,0,1,0.4,2.7,0.4c1.8,0,2.8-0.4,2.9-0.4l0.9-0.3l-12.1-34.1
				L143.8,339.4z M144.6,360.1h-8.2l3.8-10.4c0.1-0.3,0.2-0.7,0.3-1c0.1,0.3,0.2,0.7,0.3,1L144.6,360.1z"/>
			<path class="st0" d="M185.9,368l-0.5-0.4l-0.6,0.2c0,0-2.7,1-6.1,1c-4.2,0-8.1-1.4-8.1-12c0-10.7,4.1-12.2,8.1-12.2
				c3,0,5.6,1,5.6,1l0.6,0.3l0.5-0.5c0.8-0.9,1.8-2.2,1.6-4.2l0-0.5l-0.5-0.3c-0.1-0.1-3.1-1.7-8.4-1.7c-6.6,0-14.5,3.1-14.5,18.1
				c0,15,7.9,18.1,14.5,18.1c5.6,0,8.8-1.6,8.9-1.7l0.6-0.3l0-0.6C187.6,370.5,186.9,369,185.9,368z"/>
			<path class="st0" d="M219.4,339.1h-23.5l-0.3,0.6c0,0.1-0.4,1.1-0.4,2.4c0,1.4,0.4,2.4,0.5,2.5l0.3,0.6h8.5v28.6l0.6,0.3
				c0.1,0.1,1,0.4,2.8,0.4c1.7,0,2.6-0.4,2.7-0.4l0.6-0.2v-28.6h8.3l0.3-0.6c0-0.1,0.5-1.1,0.5-2.5c0-1.3-0.4-2.3-0.5-2.4
				L219.4,339.1z"/>
			<path class="st0" d="M241.7,338.6c-9.1,0-14.1,6.4-14.1,18.1c0,15,7.6,18.1,14.1,18.1s14.1-3.1,14.1-18.1
				C255.7,341.7,248.1,338.6,241.7,338.6z M248.8,356.7c0,10.8-3.6,12.2-7.1,12.2s-7.1-1.4-7.1-12.2c0-10.8,3.6-12.2,7.1-12.2
				S248.8,346,248.8,356.7z"/>
			<path class="st0" d="M285.2,359.6c3.8-1.6,6.1-5.2,6.1-9.8c0-6.4-4.4-10.8-11-10.8h-12.9v34.7l0.6,0.3c0.2,0.1,1,0.4,2.8,0.4
				c1.7,0,2.6-0.4,2.7-0.4l0.6-0.3v-13.2h3.9l7.4,13l0.2,0.3l0.4,0.1c0.1,0,1.2,0.4,3,0.4c1.9,0,3-0.3,3.1-0.4l1.2-0.4L285.2,359.6z
				 M274.2,345h5.5c3,0,4.7,1.7,4.7,4.8c0,3.1-1.6,4.8-4.7,4.8h-5.5V345z"/>
		</g>
	</g>
</g>
</svg>
